<!DOCTYPE svg PUBLIC "-//W3C//DTD SVG 1.1//EN" "http://www.w3.org/Graphics/SVG/1.1/DTD/svg11.dtd">
<!-- Uploaded to: SVG Repo, www.svgrepo.com, Transformed by: SVG Repo Mixer Tools -->
<svg fill="#ffffff" version="1.1" id="Capa_1" xmlns="http://www.w3.org/2000/svg" xmlns:xlink="http://www.w3.org/1999/xlink" width="800px" height="800px" viewBox="0 0 882.756 882.757" xml:space="preserve" stroke="#ffffff">
<g id="SVGRepo_bgCarrier" stroke-width="0"/>
<g id="SVGRepo_tracerCarrier" stroke-linecap="round" stroke-linejoin="round"/>
<g id="SVGRepo_iconCarrier"> <g> <path d="M864.083,862.757V20c0-11.046-8.954-20-20-20H38.674c-11.046,0-20,8.954-20,20v842.757c0,11.046,8.954,20,20,20h805.408 C855.128,882.757,864.083,873.803,864.083,862.757z M777.074,491.478h-671.39V89.437h671.391L777.074,491.478L777.074,491.478z"/> <path d="M339.491,451.897h101.888h101.888c11.046,0,20-8.953,20-20v-21.599c0-17.329-5.325-34.404-15.038-48.742 c-10.902-16.098-26.152-24.174-42.669-33.03c-10.637-5.704-20.524-14.015-25.308-24.857c30.581-14.55,51.721-45.729,51.721-81.848 c0-50.033-40.56-90.593-90.594-90.593s-90.594,40.56-90.594,90.593c0,36.12,21.14,67.298,51.721,81.848 c-4.784,10.843-14.672,19.154-25.308,24.857c-16.518,8.856-31.767,16.933-42.669,33.03c-9.713,14.338-15.038,31.413-15.038,48.742 v21.599C319.491,442.944,328.445,451.897,339.491,451.897z"/> </g> </g>
</svg>