<svg enable-background="new 0 0 24 24" height="24" viewBox="0 0 24 24" width="24" xmlns="http://www.w3.org/2000/svg"><path d="m0 0h24v24h-24z" fill="none"/><path d="m20 5h-3.17l-1.83-2h-6l-1.83 2h-3.17c-1.1 0-2 .9-2 2v12c0 1.1.9 2 2 2h16c1.1 0 2-.9 2-2v-12c0-1.1-.9-2-2-2zm-8 13c-2.76 0-5-2.24-5-5h-2l2.5-2.5 2.5 2.5h-2c0 2.21 1.79 4 4 4 .58 0 1.13-.13 1.62-.35l.74.74c-.71.37-1.5.61-2.36.61zm4.5-2.5-2.5-2.5h2c0-2.21-1.79-4-4-4-.58 0-1.13.13-1.62.35l-.74-.73c.71-.38 1.5-.62 2.36-.62 2.76 0 5 2.24 5 5h2z"/></svg>