<!DOCTYPE svg PUBLIC "-//W3C//DTD SVG 1.1//EN" "http://www.w3.org/Graphics/SVG/1.1/DTD/svg11.dtd">
<!-- Uploaded to: SVG Repo, www.svgrepo.com, Transformed by: SVG Repo Mixer Tools -->
<svg fill="#ffffff" height="800px" width="800px" version="1.1" id="Capa_1" xmlns="http://www.w3.org/2000/svg" xmlns:xlink="http://www.w3.org/1999/xlink" viewBox="0 0 298.562 298.562" xml:space="preserve" stroke="#ffffff">
<g id="SVGRepo_bgCarrier" stroke-width="0"/>
<g id="SVGRepo_tracerCarrier" stroke-linecap="round" stroke-linejoin="round"/>
<g id="SVGRepo_iconCarrier"> <path d="M111.331,97.839l112.27,55.426c4.457,2.2,6.287,7.598,4.086,12.055c-2.201,4.456-7.597,6.283-12.054,4.086l-112.195-55.39 c-7.479-3.522-10.873-4.896-20.817-5.268v136.551h11.803l71.285-81.256c2.129-2.429,5.395-3.524,8.562-2.885 c3.164,0.645,5.741,2.935,6.752,6.002l25.759,78.139h17.809c4.971,0,9,4.029,9,9s-4.029,9-9,9h-24.112 c-0.64,0.019-1.28-0.039-1.9-0.159c-1.302-0.248-2.504-0.776-3.542-1.52c-1.071-0.765-1.981-1.767-2.641-2.963 c-0.303-0.547-0.551-1.129-0.736-1.737l-22.802-69.17l-63.592,72.484c-1.846,2.103-4.477,3.139-7.049,3.061 c-0.093,0.003-0.186,0.004-0.279,0.004H73.851c-0.077,0.002-0.153,0.003-0.231,0.003c-4.971,0-9-4.029-9-9V99.834 c-0.082-4.333,2.922-8.028,7.016-8.948c0.551-0.124,1.121-0.197,1.705-0.216c0.667-0.022,1.351-0.034,2.035-0.034 c18.979,0,24.596,1.849,35.808,7.132C111.232,97.791,111.282,97.814,111.331,97.839z M45.438,37.528 C45.438,16.835,62.273,0,82.966,0c20.695,0,37.531,16.835,37.531,37.528s-16.836,37.529-37.531,37.529 C62.273,75.058,45.438,58.222,45.438,37.528z M63.438,37.528c0,10.769,8.76,19.529,19.528,19.529 c10.77,0,19.531-8.761,19.531-19.529C102.498,26.761,93.736,18,82.966,18C72.199,18,63.438,26.761,63.438,37.528z M284.405,280.562 H14.156c-4.971,0-9,4.029-9,9s4.029,9,9,9h270.249c4.971,0,9-4.029,9-9S289.376,280.562,284.405,280.562z"/> </g>
</svg>